<?xml version="1.0" encoding="UTF-8" standalone="no"?>
<!-- Created with Inkscape (http://www.inkscape.org/) -->

<svg
   xmlns:dc="http://purl.org/dc/elements/1.1/"
   xmlns:cc="http://creativecommons.org/ns#"
   xmlns:rdf="http://www.w3.org/1999/02/22-rdf-syntax-ns#"
   xmlns:svg="http://www.w3.org/2000/svg"
   xmlns="http://www.w3.org/2000/svg"
   xmlns:sodipodi="http://sodipodi.sourceforge.net/DTD/sodipodi-0.dtd"
   xmlns:inkscape="http://www.inkscape.org/namespaces/inkscape"
   width="744.09448819"
   height="1052.3622047"
   id="svg2"
   version="1.1"
   inkscape:version="0.48.4 r9939"
   sodipodi:docname="айболит.svg"
   inkscape:export-filename="C:\Users\dendav\Desktop\айболит.png"
   inkscape:export-xdpi="142.31528"
   inkscape:export-ydpi="142.31528">
  <defs
     id="defs4" />
  <sodipodi:namedview
     id="base"
     pagecolor="#ffffff"
     bordercolor="#666666"
     borderopacity="1.0"
     inkscape:pageopacity="0.0"
     inkscape:pageshadow="2"
     inkscape:zoom="0.7"
     inkscape:cx="404.89507"
     inkscape:cy="604.52629"
     inkscape:document-units="px"
     inkscape:current-layer="layer1"
     showgrid="false"
     inkscape:window-width="1920"
     inkscape:window-height="1018"
     inkscape:window-x="-8"
     inkscape:window-y="-8"
     inkscape:window-maximized="1" />
  <metadata
     id="metadata7">
    <rdf:RDF>
      <cc:Work
         rdf:about="">
        <dc:format>image/svg+xml</dc:format>
        <dc:type
           rdf:resource="http://purl.org/dc/dcmitype/StillImage" />
        <dc:title></dc:title>
      </cc:Work>
    </rdf:RDF>
  </metadata>
  <g
     inkscape:label="Layer 1"
     inkscape:groupmode="layer"
     id="layer1">
    <path
       style="fill:#411403;fill-opacity:1;fill-rule:nonzero;stroke:#000000;stroke-width:5;stroke-linecap:round;stroke-linejoin:round;stroke-miterlimit:4;stroke-opacity:1;stroke-dasharray:none"
       d="m 611.66163,909.68592 c -50.5393,-11.57859 -84.98963,-22.84749 -124.87724,-22.84749 -31.2828,0 -87.10956,19.77843 -67.32145,33.72672 31.46142,22.17672 187.1284,55.99476 204.12966,25.1353 2.87305,-31.54704 -6.5018,-19.55014 -11.93097,-36.01453 z"
       id="path4033-1-2-7"
       inkscape:connector-curvature="0"
       sodipodi:nodetypes="ccscc" />
    <path
       style="fill:#6b2307;fill-opacity:1;fill-rule:nonzero;stroke:#000000;stroke-width:5;stroke-linecap:round;stroke-linejoin:round;stroke-miterlimit:4;stroke-opacity:1;stroke-dasharray:none"
       d="m 589.31017,886.57691 c -41.75566,-12.47543 -52.28812,-11.80848 -90.91373,-11.80848 -30.29304,0 -36.91448,30.80473 -20.20305,46.75193 11.88036,11.33706 79.01205,32.47384 95.96449,21.68904 14.91124,-6.03393 20.40969,-40.99532 15.15229,-56.63249 z"
       id="path4033"
       inkscape:connector-curvature="0"
       sodipodi:nodetypes="ccscc" />
    <path
       style="fill:#edd6a9;fill-opacity:1;fill-rule:nonzero;stroke:#000000;stroke-width:5;stroke-linecap:round;stroke-linejoin:round;stroke-miterlimit:4;stroke-opacity:1;stroke-dasharray:none"
       d="m 578.57143,619.23641 c -6.56935,15.44766 18.57167,52.92847 32.44616,58.32704 20.53082,7.98854 33.67998,10.23335 42.07241,15.93467 4.97066,3.37677 7.17987,6.76588 12.62429,6.85118 7.23247,0.1133 10.08657,-6.53308 7.85714,-16.3589 16.29869,5.00321 24.80682,-12.28266 17.85715,-21.81188 18.23702,-6.50594 13.82929,-16.14106 7.56127,-23.61573 17.79678,-5.77468 12.94955,-14.61913 8.19841,-17.64227 -11.76699,-7.48733 -33.90239,-10.10556 -60.92556,-11.63318 -25.89027,-8.14153 -67.69127,-41.80627 -67.69127,9.94907 z"
       id="path3960"
       inkscape:connector-curvature="0"
       sodipodi:nodetypes="cssscccscc" />
    <path
       style="fill:#edd6a9;fill-opacity:1;fill-rule:nonzero;stroke:#000000;stroke-width:5;stroke-linecap:round;stroke-linejoin:round;stroke-miterlimit:4;stroke-opacity:1;stroke-dasharray:none"
       d="m 607.81456,620.05056 c -2.16557,-8.32208 20.04672,-16.82743 38.57105,-26.99542 17.70319,-9.7172 36.74106,-8.56087 26.58438,3.34191 -6.27595,7.35491 -15.48021,13.42456 -21.52319,17.99513 -6.04299,4.5706 -10.10587,9.7578 -8.46141,19.57913"
       id="path3962"
       inkscape:connector-curvature="0"
       sodipodi:nodetypes="csssc" />
    <path
       style="fill:#5680a0;fill-opacity:1;fill-rule:nonzero;stroke:#000000;stroke-width:5;stroke-linecap:round;stroke-linejoin:round;stroke-miterlimit:4;stroke-opacity:1;stroke-dasharray:none"
       d="m 556.3105,770.02498 c -5.65181,9.32365 -27.10774,40.34399 -20.97414,74.26951 13.99313,7.36075 15.71137,22.22018 14.31176,33.27573 -30.01879,23.50455 -98.76806,26.1257 -128.35865,14.78099 11.37409,-55.80214 10.15043,-100.39496 6.55442,-128.56737 37.58002,0 97.12766,-5.69528 128.46661,6.24114 z"
       id="path3991-7"
       inkscape:connector-curvature="0"
       sodipodi:nodetypes="cccccc" />
    <path
       style="fill:#ffffff;fill-opacity:1;fill-rule:nonzero;stroke:#000000;stroke-width:5;stroke-linecap:round;stroke-linejoin:round;stroke-miterlimit:4;stroke-opacity:1;stroke-dasharray:none"
       d="m 485.00106,783.33536 c 14.52074,4.23862 111.36932,14.97697 111.36932,-7.47066 -17.33311,-57.50719 -23.83967,-37.40908 -19.13149,-132.42267 -14.76417,-33.27823 1.32393,3.34537 11.30281,16.98875 8.22934,-33.62595 31.64124,-58.42517 47.98224,-62.65723 -97.91065,-84.4126 -67.77167,-113.23081 -153.52832,-173.19575 -14.22116,-13.57081 -45.99774,-10.90015 -57.59356,0.16539 -7.24867,6.91718 -3.10632,15.08614 -7.57614,23.61696 40.91785,103.73926 26.68864,255.42171 67.17514,334.97521 z"
       id="path3894"
       inkscape:connector-curvature="0"
       sodipodi:nodetypes="ccccccscc" />
    <path
       style="fill:#411403;fill-opacity:1;fill-rule:nonzero;stroke:#000000;stroke-width:5;stroke-linecap:round;stroke-linejoin:round;stroke-miterlimit:4;stroke-opacity:1;stroke-dasharray:none"
       d="m 536.60423,940.67493 c -50.5393,-11.57859 -84.98963,-22.84749 -124.87724,-22.84749 -31.2828,0 -87.10956,19.77843 -67.32145,33.72676 31.46142,22.17664 187.1284,55.9948 204.12966,25.13531 2.87305,-31.5471 -6.5018,-19.55016 -11.93097,-36.01458 z"
       id="path4033-1-2"
       inkscape:connector-curvature="0"
       sodipodi:nodetypes="ccscc" />
    <path
       style="fill:#6b2307;fill-opacity:1;fill-rule:nonzero;stroke:#000000;stroke-width:5;stroke-linecap:round;stroke-linejoin:round;stroke-miterlimit:4;stroke-opacity:1;stroke-dasharray:none"
       d="m 513.39026,913.42268 c -50.5393,-11.57862 -57.13249,-13.88301 -97.0201,-13.88301 -31.2828,0 -71.95198,29.61361 -54.69454,46.40446 12.26852,11.93696 115.42499,37.01288 132.93132,25.65753 15.39843,-6.35314 24.21249,-41.71458 18.78332,-58.17898 z"
       id="path4033-1"
       inkscape:connector-curvature="0"
       sodipodi:nodetypes="ccscc" />
    <path
       style="fill:#5680a0;fill-opacity:1;fill-rule:nonzero;stroke:#000000;stroke-width:5;stroke-linecap:round;stroke-linejoin:round;stroke-miterlimit:4;stroke-opacity:1;stroke-dasharray:none"
       d="m 497.14286,785.5519 c -6.15921,10.18275 -30.04648,41.1695 -23.36222,78.22101 15.52775,7.8548 21.93337,24.53406 20.50507,37.65453 C 461.57192,927.09778 382.24715,931.53955 350,919.14959 c 12.39523,-60.94391 11.06171,-109.64562 7.14286,-140.41389 40.95385,0 105.84752,-6.22005 140,6.8162 z"
       id="path3991"
       inkscape:connector-curvature="0"
       sodipodi:nodetypes="cccccc" />
    <path
       style="fill:#ffffff;fill-opacity:1;fill-rule:nonzero;stroke:#000000;stroke-width:5;stroke-linecap:round;stroke-linejoin:round;stroke-miterlimit:4;stroke-opacity:1;stroke-dasharray:none"
       d="M 250.00001,790.55394 C 325.02897,825.05317 445.14233,847.44358 510,785.5519 476.93858,683.54772 547.08543,628.64911 475.71429,525.17274 c -1.96111,-48.02208 -26.2848,-74.55539 -52.85714,-89.29233 -27.32306,1.1306 -86.19561,-23.2793 -101.8111,-9.61951 -41.86709,60.49918 -127.54198,301.60635 -71.04604,364.29304 z"
       id="path3892"
       inkscape:connector-curvature="0"
       sodipodi:nodetypes="cccccc" />
    <path
       style="fill:#96673a;fill-opacity:1;stroke:#000000;stroke-width:5;stroke-linecap:butt;stroke-linejoin:miter;stroke-miterlimit:4;stroke-opacity:1;stroke-dasharray:none"
       d="M 237.75665,977.42981 86.13777,903.20253 84.233889,760.74199 c 19.497161,-5.33319 47.172591,-23.92351 66.542371,-27.73604 24.09663,-4.74293 47.00115,16.1003 61.31405,15.16814 6.5212,-4.28574 0.92632,0.48467 120.99376,43.86614 l 26.35005,159.38709 z"
       id="path4058"
       inkscape:connector-curvature="0"
       sodipodi:nodetypes="cccscccc" />
    <path
       style="fill:#6b2307;fill-opacity:1;fill-rule:nonzero;stroke:#000000;stroke-width:5.00000048;stroke-linecap:round;stroke-linejoin:round;stroke-miterlimit:4;stroke-opacity:1;stroke-dasharray:none"
       d="m 309.57079,813.41912 c -182.57718,-71.89649 -87.54928,-32.0775 -186.02873,-70.11463 7.89845,-5.71455 18.06493,-13.05485 26.60277,-11.913 100.94896,38.97002 9.50199,-5.40724 193.91763,64.71967 6.32325,2.40449 -27.57701,9.88437 -34.49167,17.30796 z"
       id="path4066"
       inkscape:connector-curvature="0"
       sodipodi:nodetypes="cccsc" />
    <path
       style="fill:none;stroke:#000000;stroke-width:5;stroke-linecap:butt;stroke-linejoin:miter;stroke-miterlimit:4;stroke-opacity:1;stroke-dasharray:none"
       d="m 139.28721,734.03064 168.1904,58.80141"
       id="path4072"
       inkscape:connector-curvature="0" />
    <path
       style="fill:#411403;fill-opacity:1;fill-rule:nonzero;stroke:#000000;stroke-width:5;stroke-linecap:round;stroke-linejoin:round;stroke-miterlimit:4;stroke-opacity:1;stroke-dasharray:none"
       d="m 153.98011,737.3059 c -2.44014,-46.90725 5.74414,-48.82584 40.59199,-36.26732 12.06969,4.34969 67.70624,17.69844 72.029,26.06955 3.53685,9.89316 1.87014,18.10147 0.65629,49.89669 -0.22163,5.80524 -19.02379,10.82599 -19.86457,-2.7051 -1.7232,-27.7323 6.51384,-34.44194 -10.2359,-39.44482 -6.88307,-2.34762 -43.81666,-13.61144 -52.74861,-17.52354 -14.60028,-6.39476 -12.13675,3.38432 -12.18599,23.73429 -0.0206,8.51098 -18.58689,10.21869 -18.24225,-3.75975 z"
       id="path4062"
       inkscape:connector-curvature="0"
       sodipodi:nodetypes="cscsscsssc" />
    <path
       style="fill:#edd6a9;fill-opacity:1;fill-rule:nonzero;stroke:#000000;stroke-width:4.89392328;stroke-linecap:round;stroke-linejoin:round;stroke-miterlimit:4;stroke-opacity:1;stroke-dasharray:none"
       d="m 205.95565,653.74882 c -24.70935,8.00442 -43.46728,71.00129 -20.13427,91.18374 7.66164,6.62713 14.66326,1.81868 15.94574,2.49128 10.70567,12.34829 15.28924,3.14463 20.73124,4.69453 1.47926,-1.96658 0.84568,11.40492 15.57588,6.98235 8.32845,-2.50053 -2.46597,-29.24836 5.36456,-38.97102 8.27609,-10.27589 19.17216,12.07328 27.04991,0.005 4.85665,-7.44039 -0.67527,-19.68208 -3.806,-25.93098 -16.63207,-33.19745 -33.68979,-40.45447 -60.72706,-40.45447 z"
       id="path3896"
       inkscape:connector-curvature="0"
       sodipodi:nodetypes="csccssssc" />
    <path
       style="fill:#ffffff;fill-opacity:1;stroke:#000000;stroke-width:5;stroke-linecap:round;stroke-miterlimit:4;stroke-opacity:1;stroke-dasharray:none"
       d="m 320.71429,424.97448 c -15.00888,26.17836 -31.10059,26.36596 -50.66352,43.3414 -21.80155,18.91797 -37.14323,76.56407 -56.77162,122.34236 -19.62838,45.77827 -55.49261,68.98813 -32.96841,96.82296 15.81616,-47.13671 76.16687,-4.08663 88.97498,12.18648 17.21142,-26.60405 23.73786,-61.39274 42.85714,-107.01448 11.36365,-21.68795 30.61938,-54.29 16.79623,-87.26753"
       id="path3890"
       inkscape:connector-curvature="0"
       sodipodi:nodetypes="csscccc" />
    <path
       style="fill:#ffffff;fill-opacity:1;stroke:#000000;stroke-width:5;stroke-linecap:butt;stroke-linejoin:miter;stroke-miterlimit:4;stroke-opacity:1;stroke-dasharray:none"
       d="m 336.42857,378.62426 c -18.025,18.70584 -19.46915,27.88351 -18.57142,48.39508 25.92035,29.13752 55.38244,55.87218 90.71429,68.8437 9.39669,-29.7053 14.2075,-44.55223 31.42857,-57.93776 z"
       id="path3870"
       inkscape:connector-curvature="0"
       sodipodi:nodetypes="ccccc" />
    <path
       style="fill:#ffffff;fill-opacity:1;stroke:#000000;stroke-width:4.15174007;stroke-linecap:butt;stroke-linejoin:miter;stroke-miterlimit:4;stroke-opacity:1;stroke-dasharray:none"
       d="m 512.68232,381.62763 c 14.04575,16.55113 2.31395,16.49219 1.6144,34.64106 -20.19809,25.78122 -2.17437,37.03604 -29.70626,66.91716 -7.32225,-26.2836 -38.18539,-33.87048 -51.60469,-45.71415 z"
       id="path3870-8"
       inkscape:connector-curvature="0"
       sodipodi:nodetypes="ccccc" />
    <path
       style="fill:#edd6a9;fill-opacity:1;fill-rule:nonzero;stroke:#000000;stroke-width:5;stroke-linecap:round;stroke-linejoin:round;stroke-miterlimit:4;stroke-opacity:1;stroke-dasharray:none"
       d="m 435.28019,444.41297 c -44.16757,-7.91864 -92.71631,-50.4604 -116.15205,-79.34323 -3.64026,-4.48635 -17.78359,-7.83044 -23.0292,-11.20995 -10.4474,-6.73077 -20.32549,-30.37076 -27.55764,-39.28385 -8.05497,-9.92715 4.97681,-24.61158 -1.81339,-32.98001 31.137,-126.10473 115.78618,-205.931016 217.33092,-145.38562 7.09607,4.57166 7.98891,13.7589 12.00977,18.71433 23.10344,13.89943 17.88771,34.24259 24.24377,52.57499 7.83033,21.09066 11.31028,33.63915 26.86788,52.81274 11.69413,14.41214 -11.27245,97.64267 -21.81694,105.40969 -27.1308,19.98437 -8.50676,17.48426 -39.2034,27.59049 -15.70347,5.17006 -16.36279,19.9921 -50.87972,51.10042 z"
       id="path3768"
       inkscape:connector-curvature="0"
       sodipodi:nodetypes="csssccccsssc" />
    <path
       style="fill:none;stroke:#000000;stroke-width:5;stroke-linecap:round;stroke-linejoin:miter;stroke-miterlimit:4;stroke-opacity:1;stroke-dasharray:none"
       d="m 477.75256,198.71816 c -5.02428,49.86277 26.55284,57.93781 39.51707,76.94249"
       id="path3834"
       inkscape:connector-curvature="0"
       sodipodi:nodetypes="cc" />
    <path
       style="fill:#edd6a9;fill-opacity:1;stroke:#000000;stroke-width:5;stroke-linecap:round;stroke-linejoin:miter;stroke-miterlimit:4;stroke-opacity:1;stroke-dasharray:none"
       d="m 349.39271,364.69168 c 16.57734,39.40162 114.40652,79.32126 131.67501,37.44803"
       id="path3836"
       inkscape:connector-curvature="0"
       sodipodi:nodetypes="cc" />
    <path
       style="fill:#e1e0dd;fill-opacity:1;fill-rule:nonzero;stroke:#000000;stroke-width:5;stroke-linecap:round;stroke-linejoin:round;stroke-miterlimit:4;stroke-opacity:1;stroke-dasharray:none"
       d="m 454.922,325.51908 c -50.17922,89.5564 52.2227,144.65729 86.88461,154.0368 6.02517,-15.26833 4.24872,-23.81441 6.27399,-32.18204 3.08838,8.07846 2.8727,6.77365 6.68851,10.89214 26.73672,-79.00749 -21.91275,-162.15856 -66.11451,-131.87084 -5.73887,4.22723 -25.8178,-2.79199 -33.7326,-0.87606 z"
       id="path3772"
       inkscape:connector-curvature="0"
       sodipodi:nodetypes="cccccc" />
    <path
       style="fill:#e1e0dd;fill-opacity:1;fill-rule:nonzero;stroke:#000000;stroke-width:5;stroke-linecap:round;stroke-linejoin:round;stroke-miterlimit:4;stroke-opacity:1;stroke-dasharray:none"
       d="m 275.56344,239.6478 c -18.02494,45.90732 -20.6102,131.66951 28.48945,137.9457 10.48438,1.34016 18.61082,2.63618 23.62333,-4.53918 6.61831,-9.47401 -3.96769,-29.93414 -9.05419,-36.20288 -12.17281,3.91609 -24.17127,10.1654 -34.52755,-0.2905 -14.57817,-14.71841 -6.01237,-33.28693 7.84675,-38.85265 20.06008,-8.05599 25.54703,10.71725 33.84896,20.16612 3.0353,-1.572 20.66507,5.17572 25.29697,6.55153 -18.44404,-39.25902 -14.82056,-60.97569 5.84968,-78.88026 -1.5605,-25.09352 0.1881,-50.04263 8.55628,-73.53714 -32.26835,-11.19184 -89.84814,50.85171 -89.92968,67.63926 z"
       id="path3766"
       inkscape:connector-curvature="0"
       sodipodi:nodetypes="csscssccccc" />
    <path
       style="fill:#ffffff;fill-opacity:1;stroke:#000000;stroke-width:5.07430029;stroke-linecap:butt;stroke-linejoin:miter;stroke-miterlimit:4;stroke-opacity:1;stroke-dasharray:none"
       d="m 252.76878,139.5952 22.20201,102.60097 c 77.27596,-72.15955 165.35633,-119.06312 233.15816,-78.5267 L 518.65709,90.478101 C 500.18017,44.820816 393.16061,-9.3378767 252.76878,139.5952 z"
       id="path3764"
       inkscape:connector-curvature="0"
       sodipodi:nodetypes="ccccc" />
    <path
       style="fill:#deaa87;fill-opacity:1;fill-rule:nonzero;stroke:#000000;stroke-width:5;stroke-linecap:round;stroke-linejoin:round;stroke-miterlimit:4;stroke-opacity:1;stroke-dasharray:none"
       d="m 456.45536,319.82812 c 22.15641,38.89076 63.31398,32.0835 56.28921,-9.0585 -20.11462,-5.90334 -40.39964,1.38477 -56.28921,9.0585 z"
       id="path3774"
       inkscape:connector-curvature="0"
       sodipodi:nodetypes="ccc" />
    <path
       style="fill:#702204;fill-opacity:1;fill-rule:nonzero;stroke:#000000;stroke-width:4.11135626;stroke-linecap:round;stroke-linejoin:round;stroke-miterlimit:4;stroke-opacity:1;stroke-dasharray:none"
       d="m 463.43334,314.71582 c 22.57118,41.1709 54.20989,9.50778 38.74262,-14.79691 -14.99965,-1.60245 -28.50063,4.70512 -38.74262,14.79691 z"
       id="path3774-1"
       inkscape:connector-curvature="0"
       sodipodi:nodetypes="ccc" />
    <path
       style="fill:#e1e0dd;fill-opacity:1;fill-rule:nonzero;stroke:#000000;stroke-width:5;stroke-linecap:round;stroke-linejoin:round;stroke-miterlimit:4;stroke-opacity:1;stroke-dasharray:none"
       d="m 446.83371,286.4266 c -18.66274,-2.38557 -42.96492,22.41121 -61.29779,10.60019 -7.30087,-4.70359 -4.86869,-31.63172 -8.10695,-26.99618 -8.3728,11.98555 -19.09944,26.52712 -10.95465,46.54897 24.31026,46.16314 96.86762,18.65771 128.70947,-4.16267 25.93368,2.2841 56.39865,16.89529 73.49527,-11.33831 5.24554,-8.66258 5.84373,-41.17614 -4.76626,-64.39788 -3.62002,26.9993 -29.13219,27.32674 -49.64947,33.50921 -13.5301,39.63869 -26.95908,31.53549 -67.42962,16.23667 z"
       id="path3770"
       inkscape:connector-curvature="0"
       sodipodi:nodetypes="cssccsccc" />
    <path
       style="fill:#e1e0dd;fill-opacity:1;fill-rule:nonzero;stroke:#000000;stroke-width:4.72411633;stroke-linecap:round;stroke-linejoin:round;stroke-miterlimit:4;stroke-opacity:1;stroke-dasharray:none"
       d="m 453.11429,194.7546 c -3.15968,9.19802 -20.66992,2.16171 -35.2109,3.52468 -14.54097,1.36296 -31.31494,13.98951 -41.01532,3.66188 -18.10428,-19.27491 92.84795,-60.74443 76.22622,-7.18656 z"
       id="path3794"
       inkscape:connector-curvature="0"
       sodipodi:nodetypes="cssc" />
    <path
       style="fill:#e1e0dd;fill-opacity:1;fill-rule:nonzero;stroke:#000000;stroke-width:5;stroke-linecap:round;stroke-linejoin:round;stroke-miterlimit:4;stroke-opacity:1;stroke-dasharray:none"
       d="m 476.80214,193.8776 c 2.10327,9.33259 13.26072,2.18497 22.58808,3.56197 9.32735,1.377 20.18203,14.18302 26.30783,3.69875 11.43289,-19.56728 -60.00469,-61.60285 -48.89591,-7.26072 z"
       id="path3794-4"
       inkscape:connector-curvature="0"
       sodipodi:nodetypes="cssc" />
    <path
       style="fill:none;stroke:#000000;stroke-width:5;stroke-linecap:round;stroke-linejoin:miter;stroke-miterlimit:4;stroke-opacity:1;stroke-dasharray:none"
       d="m 458.22662,271.08724 c 22.62898,-28.96542 42.00391,-17.42446 55.84332,1.3074"
       id="path3832"
       inkscape:connector-curvature="0"
       sodipodi:nodetypes="cc" />
    <path
       sodipodi:type="arc"
       style="fill:#ffffff;fill-opacity:1;fill-rule:nonzero;stroke:#000000;stroke-width:5.11840391;stroke-linecap:round;stroke-linejoin:round;stroke-miterlimit:4;stroke-opacity:1;stroke-dasharray:none"
       id="path3838"
       sodipodi:cx="-193.9493"
       sodipodi:cy="228.07771"
       sodipodi:rx="20.203051"
       sodipodi:ry="26.263966"
       d="m -173.74624,228.07771 a 20.203051,26.263966 0 1 1 -40.40611,0 20.203051,26.263966 0 1 1 40.40611,0 z"
       transform="matrix(0.92822056,0.03406915,-0.00295939,0.83182393,605.60575,50.391434)" />
    <path
       sodipodi:type="arc"
       style="fill:#000000;fill-opacity:1;fill-rule:nonzero;stroke:#000000;stroke-width:5.11840391;stroke-linecap:round;stroke-linejoin:round;stroke-miterlimit:4;stroke-opacity:1;stroke-dasharray:none"
       id="path3840"
       sodipodi:cx="142.68405"
       sodipodi:cy="274.54471"
       sodipodi:rx="8.8388348"
       sodipodi:ry="11.111678"
       d="m 151.52289,274.54471 a 8.8388348,11.111678 0 1 1 -17.67767,0 8.8388348,11.111678 0 1 1 17.67767,0 z"
       transform="matrix(1.0213488,0.0374873,-0.00311812,0.87644269,284.43108,-17.175752)" />
    <path
       sodipodi:type="arc"
       style="fill:#ffffff;fill-opacity:1;fill-rule:nonzero;stroke:none"
       id="path3842"
       sodipodi:cx="144.70435"
       sodipodi:cy="271.26172"
       sodipodi:rx="3.2829957"
       sodipodi:ry="5.3033009"
       d="m 147.98734,271.26172 a 3.2829957,5.3033009 0 1 1 -6.56599,0 3.2829957,5.3033009 0 1 1 6.56599,0 z"
       transform="matrix(1.5213352,0.05583868,-0.00311812,0.87644269,211.89738,-19.524952)" />
    <path
       sodipodi:type="arc"
       style="fill:#ffffff;fill-opacity:1;fill-rule:nonzero;stroke:#000000;stroke-width:5.11840391;stroke-linecap:round;stroke-linejoin:round;stroke-miterlimit:4;stroke-opacity:1;stroke-dasharray:none"
       id="path3838-0"
       sodipodi:cx="-193.9493"
       sodipodi:cy="228.07771"
       sodipodi:rx="20.203051"
       sodipodi:ry="26.263966"
       d="m -173.74624,228.07771 a 20.203051,26.263966 0 1 1 -40.40611,0 20.203051,26.263966 0 1 1 40.40611,0 z"
       transform="matrix(0.83150802,0.02506422,-0.00947774,0.79795677,662.35925,50.484443)" />
    <path
       sodipodi:type="arc"
       style="fill:#000000;fill-opacity:1;fill-rule:nonzero;stroke:#000000;stroke-width:5.11840391;stroke-linecap:round;stroke-linejoin:round;stroke-miterlimit:4;stroke-opacity:1;stroke-dasharray:none"
       id="path3840-9"
       sodipodi:cx="142.68405"
       sodipodi:cy="274.54471"
       sodipodi:rx="8.8388348"
       sodipodi:ry="11.111678"
       d="m 151.52289,274.54471 a 8.8388348,11.111678 0 1 1 -17.67767,0 8.8388348,11.111678 0 1 1 17.67767,0 z"
       transform="matrix(0.91493306,0.02757894,-0.00998612,0.8407589,375.10592,-11.694307)" />
    <path
       sodipodi:type="arc"
       style="fill:#ffffff;fill-opacity:1;fill-rule:nonzero;stroke:none"
       id="path3842-4"
       sodipodi:cx="144.70435"
       sodipodi:cy="271.26172"
       sodipodi:rx="3.2829957"
       sodipodi:ry="5.3033009"
       d="m 147.98734,271.26172 a 3.2829957,5.3033009 0 1 1 -6.56599,0 3.2829957,5.3033009 0 1 1 6.56599,0 z"
       transform="matrix(1.3628252,0.0410798,-0.00998612,0.8407589,310.12702,-13.352595)" />
    <path
       style="fill:none;stroke:#000000;stroke-width:5;stroke-linecap:round;stroke-linejoin:miter;stroke-miterlimit:4;stroke-opacity:1;stroke-dasharray:none"
       d="m 301.2209,306.79687 c -21.31673,3.01814 -14.32297,28.25537 -0.10438,23.35033"
       id="path3868"
       inkscape:connector-curvature="0"
       sodipodi:nodetypes="cc" />
    <path
       style="fill:none;stroke:#000000;stroke-width:5;stroke-linecap:round;stroke-linejoin:miter;stroke-miterlimit:4;stroke-opacity:1;stroke-dasharray:none"
       d="m 201.75382,746.52565 c -5.59638,-10.9722 -8.46666,-26.88087 -5.22833,-39.00384"
       id="path3898"
       inkscape:connector-curvature="0"
       sodipodi:nodetypes="cc" />
    <path
       style="fill:none;stroke:#000000;stroke-width:5;stroke-linecap:round;stroke-linejoin:miter;stroke-miterlimit:4;stroke-opacity:1;stroke-dasharray:none"
       d="M 223.58823,753.64292 C 219.29364,743.25407 216.642,728.20339 219.3105,715.50585"
       id="path3898-8"
       inkscape:connector-curvature="0"
       sodipodi:nodetypes="cc" />
    <path
       style="fill:#ffffff;fill-opacity:1;fill-rule:nonzero;stroke:#000000;stroke-width:5;stroke-linecap:round;stroke-linejoin:round;stroke-miterlimit:4;stroke-opacity:1;stroke-dasharray:none"
       d="m 314.03575,658.16562 c -4.78051,17.49349 -20.29586,39.88634 -18.8067,38.4845 21.59951,15.14087 80.57288,25.80533 110.06548,23.8933 0.85889,-7.45324 5.73068,-27.39927 2.86695,-43.58587 -24.57012,1.21718 -70.30235,-0.96363 -94.12573,-18.79193 z"
       id="path3920"
       inkscape:connector-curvature="0"
       sodipodi:nodetypes="ccccc" />
    <path
       style="fill:#ffffff;fill-opacity:1;fill-rule:nonzero;stroke:#000000;stroke-width:4.6593051;stroke-linecap:round;stroke-linejoin:round;stroke-miterlimit:4;stroke-opacity:1;stroke-dasharray:none"
       d="m 575.71041,676.47857 c 3.50826,-40.91759 -9.1275,-86.09059 -31.07553,-98.76102 0.36948,-33.74518 -14.64693,-65.63824 -34.24054,-86.33322"
       id="path3924"
       inkscape:connector-curvature="0"
       sodipodi:nodetypes="ccc" />
    <path
       sodipodi:type="arc"
       style="fill:#000000;fill-opacity:1;fill-rule:nonzero;stroke:#000000;stroke-width:5.11840391;stroke-linecap:round;stroke-linejoin:round;stroke-miterlimit:4;stroke-opacity:1;stroke-dasharray:none"
       id="path3926"
       sodipodi:cx="525.71429"
       sodipodi:cy="535.2193"
       sodipodi:rx="4.2857141"
       sodipodi:ry="7.1428571"
       d="m 530.00001,535.2193 a 4.2857141,7.1428571 0 1 1 -8.57143,0 4.2857141,7.1428571 0 1 1 8.57143,0 z"
       transform="matrix(1.1259982,0,0,0.82397985,-96.152408,75.219034)" />
    <path
       sodipodi:type="arc"
       style="fill:#000000;fill-opacity:1;fill-rule:nonzero;stroke:#000000;stroke-width:5.11840391;stroke-linecap:round;stroke-linejoin:round;stroke-miterlimit:4;stroke-opacity:1;stroke-dasharray:none"
       id="path3926-2"
       sodipodi:cx="525.71429"
       sodipodi:cy="535.2193"
       sodipodi:rx="4.2857141"
       sodipodi:ry="7.1428571"
       d="m 530.00001,535.2193 a 4.2857141,7.1428571 0 1 1 -8.57143,0 4.2857141,7.1428571 0 1 1 8.57143,0 z"
       transform="matrix(1.1259982,0,0,0.82397985,-71.333551,278.56136)" />
    <path
       sodipodi:type="arc"
       style="fill:#000000;fill-opacity:1;fill-rule:nonzero;stroke:#000000;stroke-width:5.11840391;stroke-linecap:round;stroke-linejoin:round;stroke-miterlimit:4;stroke-opacity:1;stroke-dasharray:none"
       id="path3926-4"
       sodipodi:cx="525.71429"
       sodipodi:cy="535.2193"
       sodipodi:rx="4.2857141"
       sodipodi:ry="7.1428571"
       d="m 530.00001,535.2193 a 4.2857141,7.1428571 0 1 1 -8.57143,0 4.2857141,7.1428571 0 1 1 8.57143,0 z"
       transform="matrix(1.1259982,0,0,0.82397985,-66.787865,211.08435)" />
    <path
       sodipodi:type="arc"
       style="fill:#000000;fill-opacity:1;fill-rule:nonzero;stroke:#000000;stroke-width:5.11840391;stroke-linecap:round;stroke-linejoin:round;stroke-miterlimit:4;stroke-opacity:1;stroke-dasharray:none"
       id="path3926-5"
       sodipodi:cx="525.71429"
       sodipodi:cy="535.2193"
       sodipodi:rx="4.2857141"
       sodipodi:ry="7.1428571"
       d="m 530.00001,535.2193 a 4.2857141,7.1428571 0 1 1 -8.57143,0 4.2857141,7.1428571 0 1 1 8.57143,0 z"
       transform="matrix(1.1259982,0,0,0.82397985,-72.84878,141.19744)" />
    <path
       style="fill:none;stroke:#000000;stroke-width:5;stroke-linecap:round;stroke-linejoin:miter;stroke-miterlimit:4;stroke-opacity:1;stroke-dasharray:none"
       d="m 699.16425,638.11688 c -6.17448,-0.93906 -21.45254,-9.9651 -37.88071,-7.47068"
       id="path3964"
       inkscape:connector-curvature="0"
       sodipodi:nodetypes="cc" />
    <path
       style="fill:none;stroke:#000000;stroke-width:5;stroke-linecap:round;stroke-linejoin:miter;stroke-miterlimit:4;stroke-opacity:1;stroke-dasharray:none"
       d="m 691.08304,661.35946 c -6.17448,-0.93906 -20.69493,-12.13401 -37.1231,-9.63958"
       id="path3964-5"
       inkscape:connector-curvature="0"
       sodipodi:nodetypes="cc" />
    <path
       style="fill:none;stroke:#000000;stroke-width:5;stroke-linecap:round;stroke-linejoin:miter;stroke-miterlimit:4;stroke-opacity:1;stroke-dasharray:none"
       d="m 673.65791,683.77146 c -6.17448,-0.93905 -15.39163,-15.02587 -31.8198,-12.53145"
       id="path3964-1"
       inkscape:connector-curvature="0"
       sodipodi:nodetypes="cc" />
    <path
       style="fill:none;stroke:#000000;stroke-width:5;stroke-linecap:round;stroke-linejoin:miter;stroke-miterlimit:4;stroke-opacity:1;stroke-dasharray:none"
       d="m 473.14263,865.12886 c -11.12239,10.21542 -29.62648,13.3968 -55.55839,12.04946"
       id="path4011"
       inkscape:connector-curvature="0"
       sodipodi:nodetypes="cc" />
    <path
       style="fill:none;stroke:#000000;stroke-width:5;stroke-linecap:round;stroke-linejoin:miter;stroke-miterlimit:4;stroke-opacity:1;stroke-dasharray:none"
       d="m 535.33655,844.62628 c -6.61878,11.07095 -19.40062,15.77934 -38.05731,16.61555"
       id="path4011-1"
       inkscape:connector-curvature="0"
       sodipodi:nodetypes="cc" />
    <path
       style="fill:#411403;fill-opacity:1;fill-rule:nonzero;stroke:#000000;stroke-width:5;stroke-linecap:round;stroke-linejoin:round;stroke-miterlimit:4;stroke-opacity:1;stroke-dasharray:none"
       d="m 623.65536,926.82213 c 2.4184,15.40726 -21.87626,27.78067 -84.34774,16.38726 6.79166,-77.55836 66.69151,-71.03835 84.34774,-16.38726 z"
       id="path4031"
       inkscape:connector-curvature="0"
       sodipodi:nodetypes="ccc" />
    <path
       style="fill:#411403;fill-opacity:1;fill-rule:nonzero;stroke:#000000;stroke-width:5;stroke-linecap:round;stroke-linejoin:round;stroke-miterlimit:4;stroke-opacity:1;stroke-dasharray:none"
       d="m 549.5097,955.79337 c 2.49742,16.22235 -22.59101,29.25034 -87.10361,17.25408 7.01356,-81.66159 68.87051,-74.79664 87.10361,-17.25408 z"
       id="path4031-5"
       inkscape:connector-curvature="0"
       sodipodi:nodetypes="ccc" />
    <path
       style="fill:#96673a;fill-opacity:1;stroke:#000000;stroke-width:5;stroke-linecap:butt;stroke-linejoin:miter;stroke-miterlimit:4;stroke-opacity:1;stroke-dasharray:none"
       d="m 368.8501,951.08483 -127.44054,25.54738 -1.49188,-147.06205 c 15.896,-9.74932 41.59844,-34.42549 68.38423,-38.58191 28.41831,-4.40976 42.85094,8.51848 62.62775,17.04427 -0.12635,22.60764 -2.07956,143.05231 -2.07956,143.05231 z"
       id="path4056"
       inkscape:connector-curvature="0"
       sodipodi:nodetypes="cccscc" />
    <path
       style="fill:none;stroke:#000000;stroke-width:5;stroke-linecap:round;stroke-linejoin:miter;stroke-miterlimit:4;stroke-opacity:1;stroke-dasharray:none"
       d="M 84.233889,761.60874 240.60315,828.59686"
       id="path4060"
       inkscape:connector-curvature="0"
       sodipodi:nodetypes="cc" />
    <path
       style="fill:#6b2307;fill-opacity:1;fill-rule:nonzero;stroke:#000000;stroke-width:5;stroke-linecap:round;stroke-linejoin:round;stroke-miterlimit:4;stroke-opacity:1;stroke-dasharray:none"
       d="m 279.19334,801.98964 c 6.92213,18.04671 19.47426,86.26949 29.7995,128.68833 21.50576,-131.25149 8.59353,-44.75528 20.94272,-137.44664 -19.24635,-4.36954 -34.79166,-2.12534 -50.74222,8.75831 z"
       id="path4068"
       inkscape:connector-curvature="0"
       sodipodi:nodetypes="cccc" />
    <path
       style="fill:none;stroke:#000000;stroke-width:5;stroke-linecap:round;stroke-linejoin:miter;stroke-miterlimit:4;stroke-opacity:1;stroke-dasharray:none"
       d="m 306.97253,792.10908 2.27285,137.8459"
       id="path4070"
       inkscape:connector-curvature="0"
       sodipodi:nodetypes="cc" />
    <path
       style="fill:#d40000;fill-opacity:1;fill-rule:nonzero;stroke:#000000;stroke-width:5;stroke-miterlimit:4;stroke-opacity:1;stroke-dasharray:none"
       d="m 168.56767,835.97071 c -5.24765,-2.68354 -6.37463,-2.75905 -14.9571,-6.71724 0.16753,9.43467 0.37955,15.52237 0.66703,23.02237 -4.36505,-1.95823 -1.20724,-0.39189 -19.36096,-8.40248 0.18751,7.85714 0.11017,13.18236 0.68365,17.40719 9.53576,4.50823 11.94138,5.1547 17.49385,8.04533 0.58219,5.24595 0.79475,16.37081 0.56634,24.02919 2.05876,1.48326 8.88291,4.49323 15.17767,7.31092 -0.27457,-10.89286 -0.84173,-18.09677 -0.77556,-24.57017 8.52171,3.75 12.17335,5.58047 20.17767,8.11185 -0.56037,-4.08566 0.35692,-11.42297 0.44906,-17.1008 -7.64612,-3.25433 -11.54355,-5.72077 -19.85642,-8.97933 -0.0644,-8.45725 0.19797,-10.18256 -0.26523,-22.15683 z"
       id="path4173"
       inkscape:connector-curvature="0"
       sodipodi:nodetypes="ccccccccccccc" />
    <path
       style="fill:#d40000;fill-opacity:1;fill-rule:nonzero;stroke:#000000;stroke-width:5;stroke-miterlimit:4;stroke-opacity:1;stroke-dasharray:none"
       d="m 460.33381,63.592595 c 4.96359,0.541987 10.3607,1.556685 14.4893,3.002591 0.12392,9.662632 0.50452,11.674449 0.45096,19.246219 6.84001,1.652614 12.56983,3.942944 17.29258,9.026476 0.0559,8.012939 0.63428,9.940499 0.70704,16.906669 -7.37218,-4.9036 -13.18209,-6.76368 -17.281,-7.79555 0.14631,6.62489 0.0224,14.02908 0.32202,23.38348 -3.20111,-1.35112 -9.99424,-1.81829 -15.56807,-1.63761 -0.0631,-11.09851 0.30436,-17.39741 0.0409,-24.1557 -6.93081,-1.829941 -12.9424,-0.0979 -19.87214,-0.0763 0.10506,-6.298156 0.63089,-12.562156 0.36616,-18.514034 3.40124,-0.248439 11.524,-1.266279 18.91591,-0.238153 -0.19559,-8.722432 0.0467,-7.062178 0.13638,-19.148038 z"
       id="path4173-3"
       inkscape:connector-curvature="0"
       sodipodi:nodetypes="ccccccccccccc" />
  </g>
</svg>
